<?xml version="1.0" encoding="UTF-8" standalone="no"?>
<!-- Created with Inkscape (http://www.inkscape.org/) -->

<svg
   width="512"
   height="512"
   viewBox="0 0 512 512"
   version="1.1"
   id="svg1"
   sodipodi:docname="about-me-ico.svg"
   inkscape:version="1.4 (e7c3feb100, 2024-10-09)"
   xmlns:inkscape="http://www.inkscape.org/namespaces/inkscape"
   xmlns:sodipodi="http://sodipodi.sourceforge.net/DTD/sodipodi-0.dtd"
   xmlns="http://www.w3.org/2000/svg"
   xmlns:svg="http://www.w3.org/2000/svg">
  <sodipodi:namedview
     id="namedview1"
     pagecolor="#505050"
     bordercolor="#eeeeee"
     borderopacity="1"
     inkscape:showpageshadow="0"
     inkscape:pageopacity="0"
     inkscape:pagecheckerboard="0"
     inkscape:deskcolor="#505050"
     inkscape:document-units="px"
     inkscape:zoom="1.625517"
     inkscape:cx="176.86681"
     inkscape:cy="235.92495"
     inkscape:window-width="2560"
     inkscape:window-height="1386"
     inkscape:window-x="0"
     inkscape:window-y="0"
     inkscape:window-maximized="1"
     inkscape:current-layer="layer1" />
  <defs
     id="defs1" />
  <g
     inkscape:label="Layer 1"
     inkscape:groupmode="layer"
     id="layer1">
    <path
       d="m 267.87695,45.095703 c -131.76363,10e-4 -238.579845,92.315827 -238.580075,206.193357 0.121444,27.7763 6.736264,55.24529 19.445312,80.75781 L 2.96875,471.26172 165.98047,437.53516 c 31.8429,13.07458 66.64274,19.88746 101.89648,19.94921 131.76476,3.6e-4 238.5818,-92.31682 238.58203,-206.19531 C 506.45875,137.41056 399.64171,45.095336 267.87695,45.095703 Z m -3.67383,54.177734 c 97.29189,-2.69e-4 176.16391,68.164893 176.16407,152.250003 -1.6e-4,84.08512 -78.87218,152.2483 -176.16407,152.24804 -26.0305,-0.0456 -51.72626,-5.07651 -75.23828,-14.73046 L 68.601562,413.94336 102.40039,311.15234 C 93.016341,292.31451 88.132649,272.03279 88.042969,251.52344 88.043139,167.43905 166.91206,99.274176 264.20312,99.273437 Z"
       style="baseline-shift:baseline;display:inline;overflow:visible;vector-effect:none;fill-rule:evenodd;stroke-width:1.49316;stroke-linecap:round;stroke-linejoin:bevel;enable-background:accumulate;stop-color:#000000;stop-opacity:1"
       id="path7" />
    <rect
       style="fill:#000000;fill-opacity:1;fill-rule:evenodd;stroke-width:20.4879;stroke-linecap:round;stroke-linejoin:bevel"
       id="rect6"
       width="64.162025"
       height="190.87413"
       x="232.65337"
       y="126.58976"
       ry="6.5818663" />
    <circle
       style="fill:#000000;fill-opacity:1;fill-rule:evenodd;stroke-width:25.1737;stroke-linecap:round;stroke-linejoin:bevel"
       id="path7-9"
       cx="264.6868"
       cy="358.08398"
       r="29.312664" />
  </g>
</svg>
